<svg width="83" height="21" viewBox="0 0 83 21" fill="none" xmlns="http://www.w3.org/2000/svg">
<path d="M1.34766 12C1.07422 12 0.9375 11.8535 0.9375 11.5605V4.03711C0.9375 3.74414 1.07422 3.59766 1.34766 3.59766H6.375C6.66797 3.59766 6.81445 3.72461 6.81445 3.97852V4.66992C6.81445 4.92383 6.66797 5.05078 6.375 5.05078H2.64844V6.91406H6.06445C6.35742 6.91406 6.50391 7.04102 6.50391 7.29492V7.98633C6.50391 8.24023 6.35742 8.36719 6.06445 8.36719H2.64844V10.5469H6.5625C6.85547 10.5469 7.00195 10.6738 7.00195 10.9277V11.6191C7.00195 11.873 6.85547 12 6.5625 12H1.34766ZM8.64844 12C8.41406 12 8.29688 11.8828 8.29688 11.6484V6.19922C8.29688 5.96484 8.41406 5.84766 8.64844 5.84766H9.57422C9.80859 5.84766 9.92578 5.96484 9.92578 6.19922V6.53906H9.94922C10.1289 6.23047 10.3574 6.01953 10.6348 5.90625C10.9121 5.78906 11.2461 5.73047 11.6367 5.73047C12.2461 5.73047 12.75 5.92188 13.1484 6.30469C13.5469 6.6875 13.7461 7.38672 13.7461 8.40234V11.6484C13.7461 11.8828 13.6289 12 13.3945 12H12.457C12.2227 12 12.1055 11.8828 12.1055 11.6484V8.82422C12.1055 7.97266 12.0469 7.43555 11.9297 7.21289C11.8125 6.99023 11.5605 6.87891 11.1738 6.87891C10.7637 6.87891 10.4551 7.03906 10.248 7.35938C10.041 7.67578 9.9375 8.33594 9.9375 9.33984V11.6484C9.9375 11.8828 9.82031 12 9.58594 12H8.64844ZM15.123 7.01953C14.8926 7.01953 14.7773 6.92188 14.7773 6.72656V6.14062C14.7773 5.94531 14.8926 5.84766 15.123 5.84766H15.5215V5.64258C15.5215 5.4668 15.5625 5.30664 15.6445 5.16211L16.0957 4.37109C16.1816 4.22266 16.2832 4.14844 16.4004 4.14844H16.8105C17.0449 4.14844 17.1621 4.26562 17.1621 4.5V5.84766H18.1113C18.3418 5.84766 18.457 5.94531 18.457 6.14062V6.72656C18.457 6.92188 18.3418 7.01953 18.1113 7.01953H17.1621V9.92578C17.1621 10.3242 17.1895 10.6113 17.2441 10.7871C17.3027 10.959 17.4512 11.0449 17.6895 11.0449C17.8105 11.0449 17.9473 11.0254 18.0996 10.9863C18.252 10.9434 18.3711 10.9023 18.457 10.8633C18.5938 10.8008 18.6836 10.8457 18.7266 10.998L18.9023 11.666C18.9375 11.7988 18.8867 11.8965 18.75 11.959C18.6211 12.0176 18.4434 12.0703 18.2168 12.1172C17.9941 12.168 17.7695 12.1934 17.543 12.1934C16.9844 12.1934 16.5078 12.0781 16.1133 11.8477C15.7188 11.6172 15.5215 11.1426 15.5215 10.4238V7.01953H15.123ZM20.3555 12C20.1211 12 20.0039 11.8828 20.0039 11.6484V6.19922C20.0039 5.96484 20.1211 5.84766 20.3555 5.84766H21.2812C21.5156 5.84766 21.6328 5.96484 21.6328 6.19922V6.67969H21.6562C21.7578 6.42969 21.9277 6.20898 22.166 6.01758C22.4043 5.82617 22.6855 5.73047 23.0098 5.73047C23.2324 5.73047 23.416 5.75781 23.5605 5.8125C23.6973 5.86328 23.75 5.95703 23.7188 6.09375L23.5547 6.79102C23.5195 6.94727 23.4141 6.99414 23.2383 6.93164C23.1367 6.89648 23.0391 6.87891 22.9453 6.87891C22.5703 6.87891 22.2598 7.10352 22.0137 7.55273C21.7676 8.00195 21.6445 8.65625 21.6445 9.51562V11.6484C21.6445 11.8828 21.5273 12 21.293 12H20.3555ZM24.2812 8.92383C24.2812 7.93555 24.5273 7.15625 25.0195 6.58594C25.5156 6.01562 26.2148 5.73047 27.1172 5.73047C28.1641 5.73047 28.9414 6 29.4492 6.53906C29.957 7.07812 30.2109 7.94531 30.2109 9.14062C30.2109 9.375 30.1016 9.49219 29.8828 9.49219H26.0156C26.0781 10.1406 26.2383 10.5488 26.4961 10.7168C26.7539 10.8848 27.0527 10.9688 27.3926 10.9688C27.7168 10.9688 27.9648 10.9258 28.1367 10.8398C28.3086 10.7539 28.4531 10.6367 28.5703 10.4883C28.7031 10.3164 28.8672 10.2891 29.0625 10.4062L29.6484 10.7637C29.8789 10.9043 29.9121 11.0723 29.748 11.2676C29.5098 11.5527 29.2305 11.7656 28.9102 11.9062C28.5898 12.0469 28.084 12.1172 27.3926 12.1172C26.2715 12.1172 25.4727 11.832 24.9961 11.2617C24.5195 10.6914 24.2812 9.91211 24.2812 8.92383ZM26.0215 8.32031H28.5703C28.5703 7.89844 28.4648 7.55469 28.2539 7.28906C28.043 7.01953 27.707 6.88477 27.2461 6.88477C26.8789 6.88477 26.5879 7.01367 26.373 7.27148C26.1582 7.52539 26.041 7.875 26.0215 8.32031ZM31.1602 8.92383C31.1602 8.06445 31.3457 7.31836 31.7168 6.68555C32.0918 6.04883 32.7383 5.73047 33.6562 5.73047C34.0078 5.73047 34.3086 5.78125 34.5586 5.88281C34.8086 5.98438 35.0352 6.20312 35.2383 6.53906H35.2617L35.2852 6.19922C35.3008 5.96484 35.4062 5.84766 35.6016 5.84766H36.5273C36.7617 5.84766 36.8789 5.96484 36.8789 6.19922V11.9355C36.8789 12.8926 36.6211 13.5527 36.1055 13.916C35.5898 14.2793 34.8438 14.4609 33.8672 14.4609C33.4531 14.4609 33.0703 14.4395 32.7188 14.3965C32.3672 14.3535 32.0117 14.2461 31.6523 14.0742C31.4648 13.9844 31.4336 13.8145 31.5586 13.5645L31.7695 13.1426C31.8555 12.9707 31.998 12.9316 32.1973 13.0254C32.3574 13.0996 32.5547 13.166 32.7891 13.2246C33.0273 13.2832 33.3281 13.3125 33.6914 13.3125C34.1914 13.3125 34.5742 13.2188 34.8398 13.0312C35.1055 12.8477 35.2383 12.4434 35.2383 11.8184V11.7188C35.2383 11.5625 35.2461 11.4062 35.2617 11.25H35.2383C35.0352 11.5859 34.8086 11.8047 34.5586 11.9062C34.3086 12.0078 34.0078 12.0586 33.6562 12.0586C32.7383 12.0586 32.0918 11.7422 31.7168 11.1094C31.3457 10.4727 31.1602 9.74414 31.1602 8.92383ZM32.8945 8.92383C32.8945 9.50977 32.9746 9.98828 33.1348 10.3594C33.2988 10.7266 33.6445 10.9102 34.1719 10.9102C34.4648 10.9102 34.7148 10.7461 34.9219 10.418C35.1328 10.0859 35.2383 9.65625 35.2383 9.12891V8.66016C35.2383 8.13281 35.1328 7.70508 34.9219 7.37695C34.7148 7.04492 34.4648 6.87891 34.1719 6.87891C33.6445 6.87891 33.2988 7.06445 33.1348 7.43555C32.9746 7.80273 32.8945 8.29883 32.8945 8.92383ZM38.1445 10.3594C38.1445 9.57812 38.5176 9.01172 39.2637 8.66016C40.0098 8.30859 40.8613 8.12109 41.8184 8.09766V7.86328C41.8184 7.50391 41.7285 7.25 41.5488 7.10156C41.3691 6.95312 41.1191 6.87891 40.7988 6.87891C40.5723 6.87891 40.3711 6.91211 40.1953 6.97852C40.0234 7.04102 39.873 7.11523 39.7441 7.20117C39.6191 7.2832 39.5059 7.36719 39.4043 7.45312C39.2246 7.60938 39.0762 7.61719 38.959 7.47656L38.4727 6.87891C38.3516 6.73047 38.3809 6.57812 38.5605 6.42188C38.6973 6.30078 38.8555 6.19531 39.0352 6.10547C39.2188 6.01562 39.4609 5.93164 39.7617 5.85352C40.0625 5.77148 40.4531 5.73047 40.9336 5.73047C41.7461 5.73047 42.3691 5.91797 42.8027 6.29297C43.2402 6.66797 43.459 7.2207 43.459 7.95117V11.6484C43.459 11.8828 43.3418 12 43.1074 12H42.1465C41.9355 12 41.8301 11.8828 41.8301 11.6484V11.4727H41.8184C41.5879 11.6953 41.3105 11.8594 40.9863 11.9648C40.666 12.0664 40.3711 12.1172 40.1016 12.1172C39.4609 12.1172 38.9746 11.9609 38.6426 11.6484C38.3105 11.332 38.1445 10.9023 38.1445 10.3594ZM39.8789 10.3242C39.8789 10.4609 39.9062 10.5801 39.9609 10.6816C40.0156 10.7793 40.1016 10.8516 40.2188 10.8984C40.3359 10.9453 40.4668 10.9688 40.6113 10.9688C40.8105 10.9688 41.0039 10.9414 41.1914 10.8867C41.3789 10.832 41.5879 10.7031 41.8184 10.5V9.22852C41.1621 9.30273 40.7227 9.39844 40.5 9.51562C40.2773 9.63281 40.1172 9.75391 40.0195 9.87891C39.9258 10.0039 39.8789 10.1523 39.8789 10.3242ZM44.7305 8.92383C44.7305 8.06445 44.916 7.31836 45.2871 6.68555C45.6621 6.04883 46.3086 5.73047 47.2266 5.73047C47.5781 5.73047 47.8789 5.78125 48.1289 5.88281C48.3789 5.98438 48.6055 6.20312 48.8086 6.53906H48.832C48.8164 6.38281 48.8086 6.22656 48.8086 6.07031V3.70312C48.8086 3.46875 48.9258 3.35156 49.1602 3.35156H50.0977C50.332 3.35156 50.4492 3.46875 50.4492 3.70312V11.6484C50.4492 11.8828 50.332 12 50.0977 12H49.1719C48.9766 12 48.8711 11.8828 48.8555 11.6484L48.832 11.3086H48.8086C48.6055 11.6445 48.3789 11.8633 48.1289 11.9648C47.8789 12.0664 47.5781 12.1172 47.2266 12.1172C46.3086 12.1172 45.6621 11.8008 45.2871 11.168C44.916 10.5312 44.7305 9.7832 44.7305 8.92383ZM46.4648 8.92383C46.4648 9.54883 46.5449 10.0469 46.7051 10.418C46.8691 10.7852 47.2148 10.9688 47.7422 10.9688C48.0352 10.9688 48.2852 10.8047 48.4922 10.4766C48.7031 10.1445 48.8086 9.71484 48.8086 9.1875V8.66016C48.8086 8.13281 48.7031 7.70508 48.4922 7.37695C48.2852 7.04492 48.0352 6.87891 47.7422 6.87891C47.2148 6.87891 46.8691 7.06445 46.7051 7.43555C46.5449 7.80273 46.4648 8.29883 46.4648 8.92383ZM51.7148 8.92383C51.7148 7.92773 51.9707 7.14648 52.4824 6.58008C52.998 6.01367 53.7637 5.73047 54.7793 5.73047C55.7949 5.73047 56.5586 6.01367 57.0703 6.58008C57.5859 7.14648 57.8438 7.92773 57.8438 8.92383C57.8438 9.91992 57.5859 10.7012 57.0703 11.2676C56.5586 11.834 55.7949 12.1172 54.7793 12.1172C53.7637 12.1172 52.998 11.834 52.4824 11.2676C51.9707 10.7012 51.7148 9.91992 51.7148 8.92383ZM53.4492 8.92383C53.4492 9.66602 53.5625 10.1934 53.7891 10.5059C54.0195 10.8145 54.3496 10.9688 54.7793 10.9688C55.209 10.9688 55.5371 10.8145 55.7637 10.5059C55.9941 10.1934 56.1094 9.66602 56.1094 8.92383C56.1094 8.18164 55.9941 7.65625 55.7637 7.34766C55.5371 7.03516 55.209 6.87891 54.7793 6.87891C54.3496 6.87891 54.0195 7.03516 53.7891 7.34766C53.5625 7.65625 53.4492 8.18164 53.4492 8.92383ZM59.4609 12C59.2266 12 59.1094 11.8828 59.1094 11.6484V6.19922C59.1094 5.96484 59.2266 5.84766 59.4609 5.84766H60.3867C60.6211 5.84766 60.7383 5.96484 60.7383 6.19922V6.67969H60.7617C60.8633 6.42969 61.0332 6.20898 61.2715 6.01758C61.5098 5.82617 61.791 5.73047 62.1152 5.73047C62.3379 5.73047 62.5215 5.75781 62.666 5.8125C62.8027 5.86328 62.8555 5.95703 62.8242 6.09375L62.6602 6.79102C62.625 6.94727 62.5195 6.99414 62.3438 6.93164C62.2422 6.89648 62.1445 6.87891 62.0508 6.87891C61.6758 6.87891 61.3652 7.10352 61.1191 7.55273C60.873 8.00195 60.75 8.65625 60.75 9.51562V11.6484C60.75 11.8828 60.6328 12 60.3984 12H59.4609Z" fill="black"/>
<path d="M36.3594 16.0685C36.3662 15.092 36.6255 14.3044 37.1375 13.7057C37.6528 13.1038 38.3515 12.8059 39.2336 12.8121C39.7382 12.8156 40.1441 12.9632 40.4513 13.2551C40.7618 13.5437 40.9158 13.8703 40.9132 14.2349C40.9099 14.7167 40.6763 15.0699 40.2125 15.2945C39.7519 15.5192 39.181 15.6975 38.4998 15.8295L37.2969 16.0604C37.2766 16.1839 37.2663 16.249 37.2663 16.2555C37.2641 16.5778 37.35 16.8583 37.5241 17.0972C37.6982 17.336 38.005 17.4569 38.4445 17.46C38.8188 17.4626 39.1204 17.3963 39.3492 17.2612C39.578 17.1261 39.7335 17.0035 39.8156 16.8934C39.9306 16.7412 40.0334 16.7077 40.124 16.793L40.4103 17.044C40.4718 17.0997 40.4614 17.1908 40.3791 17.3172C40.3034 17.4339 40.1005 17.5952 39.7703 17.8013C39.4401 18.004 38.9576 18.1032 38.3228 18.0988C37.6295 18.094 37.128 17.8903 36.8183 17.4878C36.5086 17.082 36.3556 16.6089 36.3594 16.0685ZM37.3261 15.3819L38.3284 15.1935C38.7847 15.1088 39.1859 14.9911 39.532 14.8405C39.8782 14.6867 40.0522 14.4698 40.0542 14.1899C40.0557 13.9685 39.956 13.7904 39.7551 13.6555C39.5575 13.5175 39.3285 13.4475 39.0681 13.4457C38.6742 13.4429 38.3216 13.5902 38.0103 13.8876C37.7022 14.1849 37.4742 14.683 37.3261 15.3819ZM41.3214 18.0367C41.1098 18.0352 41.0909 17.939 41.2648 17.7482L43.489 15.2929L42.5611 13.2063C42.4745 13.0136 42.5386 12.918 42.7535 12.9195L43.1148 12.9221C43.232 12.9229 43.3082 12.9657 43.3434 13.0506L44.0542 14.7548L45.4674 13.0654C45.5363 12.9812 45.6326 12.9396 45.7563 12.9404L46.2886 12.9441C46.5034 12.9456 46.5239 13.0418 46.35 13.2326L44.3817 15.4114L45.4444 17.7772C45.5309 17.9699 45.4652 18.0655 45.2471 18.064L44.8662 18.0613C44.749 18.0605 44.6728 18.0176 44.6376 17.9328L43.8213 15.9495L42.1572 17.9155C42.085 17.9997 41.9887 18.0413 41.8683 18.0405L41.3214 18.0367ZM45.9171 20.0218C45.7706 20.0208 45.7141 19.9471 45.7477 19.8009L47.327 13.1711C47.3606 13.0248 47.4506 12.9522 47.5971 12.9532L48.0073 12.9561C48.1277 12.9569 48.1744 13.0305 48.1473 13.1768L48.0358 13.762L48.0456 13.762C48.1906 13.5059 48.4151 13.2958 48.719 13.1319C49.0229 12.9648 49.305 12.8821 49.5654 12.8839C50.1839 12.8882 50.6122 13.0816 50.8505 13.4641C51.092 13.8434 51.2109 14.2984 51.2072 14.8289C51.2014 15.659 50.9341 16.4254 50.4051 17.1281C49.8761 17.8276 49.2568 18.1748 48.5472 18.1699C48.1859 18.1674 47.9047 18.1117 47.7036 18.0029C47.5026 17.8908 47.3198 17.7235 47.1553 17.501L47.1456 17.501C47.1319 17.592 47.1117 17.6912 47.0849 17.7984L46.6071 19.8069C46.5735 19.9531 46.4835 20.0257 46.337 20.0247L45.9171 20.0218ZM47.3565 16.6626C47.3868 16.9883 47.491 17.2153 47.6691 17.3435C47.8473 17.4684 48.1187 17.5321 48.4833 17.5347C48.978 17.5381 49.4031 17.266 49.7585 16.7183C50.1139 16.1674 50.2942 15.5241 50.2993 14.7885C50.3016 14.4499 50.2304 14.1548 50.0857 13.9032C49.941 13.6482 49.6847 13.5195 49.3169 13.5169C48.9979 13.5147 48.671 13.7045 48.3363 14.0863C48.0049 14.4649 47.7873 14.8686 47.6834 15.2976L47.3565 16.6626ZM51.8485 18.1099C51.702 18.1088 51.6455 18.0352 51.6791 17.8889L52.7957 13.2091C52.8292 13.0628 52.9193 12.9902 53.0657 12.9912L53.4759 12.9941C53.6224 12.9951 53.6788 13.0687 53.6452 13.215L53.4592 13.995L53.4787 13.9951C53.7156 13.6289 53.9568 13.3588 54.2021 13.1847C54.4507 13.0074 54.7427 12.9199 55.078 12.9222C55.27 12.9236 55.405 12.9424 55.4829 12.9787C55.5445 13.0052 55.5605 13.0542 55.5307 13.1256L55.3668 13.5248C55.3436 13.5833 55.2962 13.6057 55.2247 13.5922C55.1142 13.5686 55.002 13.5565 54.888 13.5557C54.5332 13.5532 54.1719 13.7818 53.8041 14.2415C53.4364 14.698 53.1938 15.1699 53.0765 15.6574L52.5385 17.8949C52.5049 18.0412 52.4149 18.1138 52.2684 18.1128L51.8485 18.1099ZM55.3433 16.2005C55.3501 15.224 55.6095 14.4364 56.1214 13.8377C56.6367 13.2358 57.3354 12.9379 58.2176 12.944C58.7221 12.9476 59.128 13.0952 59.4352 13.3871C59.7457 13.6757 59.8997 14.0023 59.8972 14.3669C59.8938 14.8487 59.6602 15.2019 59.1964 15.4265C58.7359 15.6512 58.1649 15.8295 57.4837 15.9615L56.2809 16.1924C56.2605 16.3159 56.2503 16.381 56.2502 16.3875C56.248 16.7097 56.3339 16.9903 56.508 17.2291C56.6822 17.468 56.9889 17.5889 57.4284 17.592C57.8027 17.5946 58.1043 17.5283 58.3331 17.3932C58.5619 17.2581 58.7174 17.1354 58.7995 17.0253C58.9145 16.8731 59.0173 16.8397 59.1079 16.9249L59.3942 17.176C59.4557 17.2317 59.4453 17.3228 59.363 17.4492C59.2873 17.5659 59.0844 17.7272 58.7542 17.9333C58.424 18.136 57.9415 18.2352 57.3068 18.2308C56.6134 18.226 56.1119 18.0223 55.8022 17.6198C55.4925 17.2139 55.3395 16.7409 55.3433 16.2005ZM56.31 15.5139L57.3123 15.3255C57.7686 15.2408 58.1699 15.1231 58.516 14.9725C58.8621 14.8187 59.0361 14.6018 59.0381 14.3219C59.0396 14.1005 58.9399 13.9224 58.739 13.7875C58.5414 13.6494 58.3124 13.5795 58.052 13.5777C57.6581 13.5749 57.3055 13.7222 56.9942 14.0196C56.6862 14.3169 56.4581 14.815 56.31 15.5139ZM60.5041 17.672C60.4104 17.5704 60.398 17.4808 60.4669 17.4032L60.713 17.1168C60.7819 17.0391 60.8876 17.0545 61.0301 17.1629C61.2147 17.3042 61.4124 17.4179 61.6234 17.504C61.8377 17.5868 62.062 17.6291 62.2964 17.6307C62.4722 17.6319 62.6465 17.6104 62.8193 17.566C62.9954 17.5184 63.1409 17.425 63.2559 17.2858C63.3708 17.1466 63.4287 17.0071 63.4297 16.8671C63.4306 16.7271 63.4103 16.6082 63.3687 16.5102C63.3303 16.4123 63.2609 16.3288 63.1604 16.2597C63.06 16.1907 62.9595 16.1363 62.8588 16.0965C62.7225 16.0435 62.565 15.9805 62.3865 15.9077C62.2112 15.8348 62.0473 15.7621 61.8948 15.6894C61.7456 15.6168 61.6129 15.5133 61.4966 15.379C61.3803 15.2447 61.2951 15.0993 61.2408 14.9427C61.1866 14.7828 61.1601 14.6133 61.1614 14.4343C61.1632 14.1674 61.2464 13.9075 61.4109 13.6547C61.5755 13.3987 61.8111 13.2213 62.1178 13.1225C62.4277 13.0238 62.7633 12.9757 63.1247 12.9782C63.4372 12.9803 63.7184 13.0279 63.9684 13.1208C64.2185 13.2104 64.4309 13.3291 64.6056 13.4768C64.7027 13.5588 64.7086 13.6467 64.6233 13.7406L64.3773 14.0123C64.3149 14.0802 64.2109 14.0616 64.0652 13.9564C63.9356 13.8644 63.7864 13.7885 63.6175 13.7287C63.4486 13.6689 63.2747 13.6384 63.0957 13.6372C62.9394 13.6361 62.7733 13.6577 62.5972 13.7021C62.4243 13.7464 62.2854 13.8268 62.1804 13.9433C62.0755 14.0598 62.0224 14.1994 62.0213 14.3621C62.0205 14.4793 62.036 14.5868 62.0679 14.6847C62.0997 14.7826 62.1561 14.866 62.237 14.9349C62.3212 15.0006 62.4103 15.055 62.5044 15.0979C62.6732 15.1772 62.8355 15.2451 62.9913 15.3015C63.1504 15.358 63.2949 15.4159 63.4247 15.4754C63.6519 15.5747 63.8366 15.6899 63.9789 15.8211C64.1213 15.9523 64.2163 16.0978 64.264 16.2577C64.315 16.4175 64.3398 16.5902 64.3385 16.7758C64.336 17.1371 64.22 17.4358 63.9905 17.6718C63.7642 17.9079 63.506 18.0672 63.2157 18.1498C62.9254 18.2292 62.5931 18.2676 62.2187 18.265C61.7533 18.2617 61.381 18.1957 61.1019 18.0668C60.8262 17.9346 60.6269 17.803 60.5041 17.672ZM65.084 17.7038C64.9903 17.6023 64.9779 17.5126 65.0468 17.435L65.293 17.1486C65.3619 17.071 65.4676 17.0864 65.6101 17.1948C65.7946 17.336 65.9924 17.4497 66.2034 17.5358C66.4177 17.6187 66.642 17.6609 66.8764 17.6626C67.0521 17.6638 67.2265 17.6422 67.3993 17.5978C67.5754 17.5502 67.7209 17.4568 67.8358 17.3177C67.9507 17.1785 68.0087 17.0389 68.0096 16.8989C68.0106 16.759 67.9903 16.64 67.9486 16.5421C67.9103 16.4441 67.8408 16.3606 67.7404 16.2916C67.64 16.2225 67.5394 16.1681 67.4388 16.1284C67.3025 16.0753 67.145 16.0124 66.9665 15.9395C66.7912 15.8667 66.6273 15.7939 66.4748 15.7213C66.3256 15.6486 66.1928 15.5451 66.0766 15.4109C65.9603 15.2766 65.8751 15.1311 65.8208 14.9745C65.7666 14.8146 65.7401 14.6452 65.7413 14.4661C65.7432 14.1992 65.8264 13.9394 65.9909 13.6866C66.1554 13.4306 66.3911 13.2532 66.6977 13.1544C67.0077 13.0556 67.3433 13.0075 67.7046 13.01C68.0171 13.0122 68.2984 13.0597 68.5484 13.1526C68.7984 13.2422 69.0108 13.3609 69.1856 13.5086C69.2827 13.5907 69.2886 13.6786 69.2033 13.7724L68.9572 14.0441C68.8949 14.1121 68.7909 14.0934 68.6451 13.9883C68.5155 13.8962 68.3663 13.8203 68.1975 13.7605C68.0286 13.7008 67.8547 13.6702 67.6756 13.669C67.5194 13.6679 67.3532 13.6895 67.1771 13.7339C67.0043 13.7783 66.8654 13.8587 66.7604 13.9751C66.6554 14.0916 66.6024 14.2312 66.6012 14.394C66.6004 14.5112 66.6159 14.6187 66.6478 14.7166C66.6797 14.8145 66.7361 14.8979 66.817 14.9668C66.9012 15.0325 66.9903 15.0868 67.0844 15.1298C67.2531 15.2091 67.4154 15.2769 67.5713 15.3334C67.7304 15.3898 67.8749 15.4478 68.0047 15.5073C68.2318 15.6065 68.4166 15.7217 68.5589 15.8529C68.7012 15.9841 68.7962 16.1297 68.844 16.2895C68.8949 16.4494 68.9198 16.6221 68.9185 16.8076C68.916 17.1689 68.8 17.4676 68.5705 17.7036C68.3442 17.9397 68.0859 18.099 67.7956 18.1817C67.5054 18.261 67.1731 18.2994 66.7987 18.2968C66.3332 18.2936 65.961 18.2275 65.6819 18.0986C65.4061 17.9665 65.2068 17.8349 65.084 17.7038Z" fill="#E83939"/>
</svg>
